# xmcd
#
# Track frame offsets:
#	150
#	11803
#	24303
#	42661
#	56093
#	78991
#	97404
#	114672
#	129425
#	145821
#
# Disc length: 2224 seconds
#
# Revision: 0
# Processed by: cddbd v1.4PL0 Copyright (c) Steve Scherf et al.
# Submitted via: EasyCDDAExtractor 4.6.0.1
#
DISCID=8b08ae0a
DTITLE=Ghoultown - Tales from the Dead West
DYEAR=2000
DGENRE=
TTITLE0=La Noche Diabolo 
TTITLE1=RotoRidiulous
TTITLE2=Killer in Texas
TTITLE3=Ghost Riders in the Sky
TTITLE4=The Burning
TTITLE5=The Worm
TTITLE6=Midnight Train
TTITLE7=Gunslinger
TTITLE8=Death of Jonah Hex
TTITLE9=Running from the Sun
EXTD=
EXTT0=
EXTT1=
EXTT2=
EXTT3=
EXTT4=
EXTT5=
EXTT6=
EXTT7=
EXTT8=
EXTT9=
PLAYORDER=
